<svg width="200" height="32" viewBox="0 0 200 32" fill="none" xmlns="http://www.w3.org/2000/svg">
<rect x="165" y="16" width="8" height="8" fill="#FFBA08"/>
<path d="M3.27273 7.63636H6.54545V10.9091H3.27273V7.63636ZM0 7.63636H3.27273V10.9091H0V7.63636ZM0 10.9091H3.27273V14.1818H0V10.9091ZM0 14.1818H3.27273V17.4545H0V14.1818ZM0 17.4545H3.27273V20.7273H0V17.4545ZM0 20.7273H3.27273V24H0V20.7273ZM3.27273 20.7273H6.54545V24H3.27273V20.7273ZM9.80859 7.63636H13.0813V10.9091H9.80859V7.63636ZM9.80859 10.9091H13.0813V14.1818H9.80859V10.9091ZM9.80859 14.1818H13.0813V17.4545H9.80859V14.1818ZM9.80859 17.4545H13.0813V20.7273H9.80859V17.4545ZM9.80859 20.7273H13.0813V24H9.80859V20.7273ZM13.0813 20.7273H16.354V24H13.0813V20.7273ZM16.354 20.7273H19.6268V24H16.354V20.7273ZM16.354 17.4545H19.6268V20.7273H16.354V17.4545ZM16.354 14.1818H19.6268V17.4545H16.354V14.1818ZM16.354 10.9091H19.6268V14.1818H16.354V10.9091ZM16.354 7.63636H19.6268V10.9091H16.354V7.63636ZM22.8867 20.7273H26.1594V24H22.8867V20.7273ZM22.8867 17.4545H26.1594V20.7273H22.8867V17.4545ZM22.8867 14.1818H26.1594V17.4545H22.8867V14.1818ZM22.8867 10.9091H26.1594V14.1818H22.8867V10.9091ZM22.8867 7.63636H26.1594V10.9091H22.8867V7.63636ZM26.1594 7.63636H29.4322V10.9091H26.1594V7.63636ZM29.4322 7.63636H32.7049V10.9091H29.4322V7.63636ZM29.4322 10.9091H32.7049V14.1818H29.4322V10.9091ZM26.1594 14.1818H29.4322V17.4545H26.1594V14.1818ZM29.4322 17.4545H32.7049V20.7273H29.4322V17.4545ZM29.4322 20.7273H32.7049V24H29.4322V20.7273ZM42.5103 7.63636H45.783V10.9091H42.5103V7.63636ZM39.2376 7.63636H42.5103V10.9091H39.2376V7.63636ZM35.9648 10.9091H39.2376V14.1818H35.9648V10.9091ZM35.9648 14.1818H39.2376V17.4545H35.9648V14.1818ZM39.2376 14.1818H42.5103V17.4545H39.2376V14.1818ZM42.5103 14.1818H45.783V17.4545H42.5103V14.1818ZM42.5103 17.4545H45.783V20.7273H42.5103V17.4545ZM42.5103 20.7273H45.783V24H42.5103V20.7273ZM39.2376 20.7273H42.5103V24H39.2376V20.7273ZM35.9648 20.7273H39.2376V24H35.9648V20.7273ZM35.9648 7.63636H39.2376V10.9091H35.9648V7.63636ZM49.043 7.63636H52.3157V10.9091H49.043V7.63636ZM49.043 10.9091H52.3157V14.1818H49.043V10.9091ZM49.043 14.1818H52.3157V17.4545H49.043V14.1818ZM49.043 17.4545H52.3157V20.7273H49.043V17.4545ZM49.043 20.7273H52.3157V24H49.043V20.7273ZM52.3157 7.63636H55.5884V10.9091H52.3157V7.63636ZM52.3157 20.7273H55.5884V24H52.3157V20.7273ZM52.3157 14.1818H55.5884V17.4545H52.3157V14.1818ZM55.5884 7.63636H58.8612V10.9091H55.5884V7.63636ZM55.5884 20.7273H58.8612V24H55.5884V20.7273ZM62.1211 7.63636H65.3938V10.9091H62.1211V7.63636ZM62.1211 10.9091H65.3938V14.1818H62.1211V10.9091ZM62.1211 14.1818H65.3938V17.4545H62.1211V14.1818ZM62.1211 17.4545H65.3938V20.7273H62.1211V17.4545ZM62.1211 20.7273H65.3938V24H62.1211V20.7273ZM65.3938 7.63636H68.6665V10.9091H65.3938V7.63636ZM68.6665 10.9091H71.9393V14.1818H68.6665V10.9091ZM68.6665 14.1818H71.9393V17.4545H68.6665V14.1818ZM68.6665 17.4545H71.9393V20.7273H68.6665V17.4545ZM65.3938 20.7273H68.6665V24H65.3938V20.7273ZM85.0078 7.63636H88.2805V10.9091H85.0078V7.63636ZM85.0078 10.9091H88.2805V14.1818H85.0078V10.9091ZM85.0078 14.1818H88.2805V17.4545H85.0078V14.1818ZM85.0078 17.4545H88.2805V20.7273H85.0078V17.4545ZM85.0078 20.7273H88.2805V24H85.0078V20.7273ZM88.2805 7.63636H91.5533V10.9091H88.2805V7.63636ZM91.5533 10.9091H94.826V14.1818H91.5533V10.9091ZM91.5533 14.1818H94.826V17.4545H91.5533V14.1818ZM91.5533 17.4545H94.826V20.7273H91.5533V17.4545ZM88.2805 20.7273H91.5533V24H88.2805V20.7273ZM98.0859 7.63636H101.359V10.9091H98.0859V7.63636ZM98.0859 10.9091H101.359V14.1818H98.0859V10.9091ZM98.0859 14.1818H101.359V17.4545H98.0859V14.1818ZM98.0859 17.4545H101.359V20.7273H98.0859V17.4545ZM98.0859 20.7273H101.359V24H98.0859V20.7273ZM101.359 7.63636H104.631V10.9091H101.359V7.63636ZM101.359 20.7273H104.631V24H101.359V20.7273ZM101.359 14.1818H104.631V17.4545H101.359V14.1818ZM104.631 7.63636H107.904V10.9091H104.631V7.63636ZM104.631 20.7273H107.904V24H104.631V20.7273ZM111.164 7.63636H114.437V10.9091H111.164V7.63636ZM111.164 10.9091H114.437V14.1818H111.164V10.9091ZM111.164 14.1818H114.437V17.4545H111.164V14.1818ZM111.164 17.4545H114.437V20.7273H111.164V17.4545ZM111.164 20.7273H114.437V24H111.164V20.7273ZM114.437 7.63636H117.71V10.9091H114.437V7.63636ZM117.71 7.63636H120.982V10.9091H117.71V7.63636ZM117.71 10.9091H120.982V14.1818H117.71V10.9091ZM117.71 14.1818H120.982V17.4545H117.71V14.1818ZM114.437 14.1818H117.71V17.4545H114.437V14.1818ZM124.242 7.63636H127.515V10.9091H124.242V7.63636ZM127.515 7.63636H130.788V10.9091H127.515V7.63636ZM130.788 7.63636H134.06V10.9091H130.788V7.63636ZM127.515 10.9091H130.788V14.1818H127.515V10.9091ZM127.515 14.1818H130.788V17.4545H127.515V14.1818ZM127.515 17.4545H130.788V20.7273H127.515V17.4545ZM127.515 20.7273H130.788V24H127.515V20.7273ZM137.32 20.7273H140.593V24H137.32V20.7273ZM137.32 17.4545H140.593V20.7273H137.32V17.4545ZM137.32 14.1818H140.593V17.4545H137.32V14.1818ZM137.32 10.9091H140.593V14.1818H137.32V10.9091ZM137.32 7.63636H140.593V10.9091H137.32V7.63636ZM140.593 14.1818H143.866V17.4545H140.593V14.1818ZM143.866 7.63636H147.138V10.9091H143.866V7.63636ZM143.866 10.9091H147.138V14.1818H143.866V10.9091ZM143.866 14.1818H147.138V17.4545H143.866V14.1818ZM143.866 17.4545H147.138V20.7273H143.866V17.4545ZM143.866 20.7273H147.138V24H143.866V20.7273ZM156.944 7.63636H160.217V10.9091H156.944V7.63636ZM153.671 7.63636H156.944V10.9091H153.671V7.63636ZM150.398 10.9091H153.671V14.1818H150.398V10.9091ZM150.398 14.1818H153.671V17.4545H150.398V14.1818ZM153.671 14.1818H156.944V17.4545H153.671V14.1818ZM156.944 14.1818H160.217V17.4545H156.944V14.1818ZM156.944 17.4545H160.217V20.7273H156.944V17.4545ZM156.944 20.7273H160.217V24H156.944V20.7273ZM153.671 20.7273H156.944V24H153.671V20.7273ZM150.398 20.7273H153.671V24H150.398V20.7273ZM150.398 7.63636H153.671V10.9091H150.398V7.63636Z" fill="white"/>
</svg>
